<svg xmlns="http://www.w3.org/2000/svg" width="1600" height="1000" viewBox="0 0 1600 1000">
  <defs>
    <radialGradient id="bg" cx="50%" cy="60%" r="80%">
      <stop offset="0%" stop-color="#111923"/>
      <stop offset="55%" stop-color="#060a0f"/>
      <stop offset="100%" stop-color="#020304"/>
    </radialGradient>
    <filter id="glow" x="-50%" y="-50%" width="200%" height="200%">
      <feGaussianBlur stdDeviation="3" result="b"/>
      <feMerge><feMergeNode in="b"/><feMergeNode in="SourceGraphic"/></feMerge>
    </filter>
  </defs>
  <rect width="1600" height="1000" fill="url(#bg)"/>
  <g opacity="0.35" stroke="#ffffff" stroke-width="1">
    <path d="M80 190 L220 120 L380 210 L520 150 L680 230 L860 120 L1040 210 L1240 130 L1480 240"/>
    <path d="M120 760 L280 660 L480 720 L660 620 L840 700 L1050 610 L1260 710 L1490 630"/>
    <path d="M40 500 L220 430 L400 520 L600 410 L820 520 L1000 430 L1220 540 L1450 470"/>
    <path d="M220 120 L280 660 M380 210 L480 720 M680 230 L660 620 M1040 210 L1050 610 M1240 130 L1260 710"/>
  </g>
  <g opacity="0.75" fill="#f6c75a" filter="url(#glow)">
    <circle cx="80" cy="190" r="4"/><circle cx="220" cy="120" r="5"/><circle cx="380" cy="210" r="4"/><circle cx="520" cy="150" r="3"/><circle cx="680" cy="230" r="5"/><circle cx="860" cy="120" r="4"/><circle cx="1040" cy="210" r="5"/><circle cx="1240" cy="130" r="4"/><circle cx="1480" cy="240" r="5"/>
    <circle cx="120" cy="760" r="5"/><circle cx="280" cy="660" r="4"/><circle cx="480" cy="720" r="5"/><circle cx="660" cy="620" r="4"/><circle cx="840" cy="700" r="5"/><circle cx="1050" cy="610" r="4"/><circle cx="1260" cy="710" r="5"/><circle cx="1490" cy="630" r="4"/>
    <circle cx="40" cy="500" r="3"/><circle cx="400" cy="520" r="4"/><circle cx="820" cy="520" r="4"/><circle cx="1220" cy="540" r="3"/><circle cx="1450" cy="470" r="4"/>
  </g>
  <g opacity="0.18" fill="#ffffff">
    <circle cx="310" cy="320" r="80"/><circle cx="1120" cy="330" r="100"/><circle cx="760" cy="820" r="120"/>
  </g>
</svg>
